<svg viewBox="0 0 14 14" fill="none" xmlns="http://www.w3.org/2000/svg">
<g id="bank 1" clip-path="url(#clip0_0_61803)">
<path id="Vector" d="M0.16975 4.98867C0.0440545 4.75552 -0.0141783 4.49196 0.00158671 4.22756C0.0173517 3.96316 0.106491 3.70839 0.259 3.49183C0.508234 3.12615 0.842009 2.82599 1.232 2.61683L5.60758 0.3395C6.03765 0.115868 6.51526 -0.000886852 7 -0.000886852C7.48474 -0.000886852 7.96235 0.115868 8.39242 0.3395L12.7674 2.61858C13.1574 2.82774 13.4912 3.1279 13.7404 3.49358C13.8929 3.71014 13.9821 3.96491 13.9978 4.22931C14.0136 4.49371 13.9554 4.75727 13.8297 4.99042C13.6943 5.2464 13.4914 5.46035 13.2429 5.60898C12.9944 5.7576 12.7099 5.8352 12.4203 5.83333H1.57967C1.28984 5.83514 1.00509 5.75733 0.75646 5.60838C0.507833 5.45943 0.304884 5.24507 0.16975 4.98867ZM13.4167 12.8333C13.4167 12.5239 13.2938 12.2272 13.075 12.0084C12.8562 11.7896 12.5594 11.6667 12.25 11.6667V7H11.0833V11.6667H9.33333V7H8.16667V11.6667H5.83333V7H4.66667V11.6667H2.91667V7H1.75V11.6667C1.44058 11.6667 1.14383 11.7896 0.925042 12.0084C0.70625 12.2272 0.583333 12.5239 0.583333 12.8333C0.428624 12.8333 0.28025 12.8948 0.170854 13.0042C0.061458 13.1136 -2.08591e-07 13.262 -2.08591e-07 13.4167C-2.08591e-07 13.5714 0.061458 13.7198 0.170854 13.8291C0.28025 13.9385 0.428624 14 0.583333 14H13.4167C13.5714 14 13.7198 13.9385 13.8291 13.8291C13.9385 13.7198 14 13.5714 14 13.4167C14 13.262 13.9385 13.1136 13.8291 13.0042C13.7198 12.8948 13.5714 12.8333 13.4167 12.8333Z" fill="var(--fill-0, #3A87E5)"/>
</g>
<defs>
<clipPath id="clip0_0_61803">
<rect width="14" height="14" fill="white"/>
</clipPath>
</defs>
</svg>
