<svg viewBox="0 0 14 14" fill="none" xmlns="http://www.w3.org/2000/svg">
<g id="suitcase-alt 1" clip-path="url(#clip0_0_61818)">
<path id="Vector" d="M11.0833 2.33333H10.4411C10.1698 1.00392 8.9915 0 7.58333 0H6.41667C5.0085 0 3.82958 1.00392 3.55892 2.33333H2.91667C1.30842 2.33333 0 3.64175 0 5.25V11.0833C0 12.6916 1.30842 14 2.91667 14H3.5V5.25C3.5 4.92742 3.76133 4.66667 4.08333 4.66667C4.40533 4.66667 4.66667 4.92742 4.66667 5.25V14H9.33333V5.25C9.33333 4.92742 9.59408 4.66667 9.91667 4.66667C10.2392 4.66667 10.5 4.92742 10.5 5.25V14H11.0833C12.6916 14 14 12.6916 14 11.0833V5.25C14 3.64175 12.6916 2.33333 11.0833 2.33333ZM4.767 2.33333C5.00792 1.65433 5.656 1.16667 6.41667 1.16667H7.58333C8.344 1.16667 8.99208 1.65433 9.233 2.33333H4.767Z" fill="var(--fill-0, #FC7E00)"/>
</g>
<defs>
<clipPath id="clip0_0_61818">
<rect width="14" height="14" fill="white"/>
</clipPath>
</defs>
</svg>
