<svg viewBox="0 0 14 14" fill="none" xmlns="http://www.w3.org/2000/svg">
<g id="clapper-open 1" clip-path="url(#clip0_0_61829)">
<path id="Vector" d="M14 7.58313V11.0831C14 12.6937 12.6939 13.9998 11.0833 13.9998H3.50001C1.88943 13.9998 0.583344 12.6937 0.583344 11.0831V6.41647H1.25009L4.17376 1.86647L5.96984 1.37938L2.89976 6.17905L2.04109 6.40363L2.01601 6.41647H12.8333C13.4779 6.41647 14 6.93855 14 7.58313ZM9.90501 4.34913L12.3935 0.357383C12.0488 0.0948833 11.6107 -0.0375333 11.1469 0.00855002L8.07684 4.8263L9.90501 4.34913ZM12.6041 3.64388C13.1087 3.51205 13.4173 3.00338 13.3012 2.49472L13.069 1.47913L11.5477 3.9198L12.6041 3.64388ZM6.41668 5.2603L9.50018 0.422717L7.64576 0.92555L4.56284 5.74447L6.41668 5.2603ZM1.37318 2.62538C0.431094 2.83305 -0.166823 3.76813 0.0414273 4.71488L0.284677 5.78005L2.49726 2.32088L1.37318 2.62538Z" fill="var(--fill-0, #813ACE)"/>
</g>
<defs>
<clipPath id="clip0_0_61829">
<rect width="14" height="14" fill="white"/>
</clipPath>
</defs>
</svg>
