<svg viewBox="0 0 14 14" fill="none" xmlns="http://www.w3.org/2000/svg">
<g id="gas-pump-alt 1" clip-path="url(#clip0_0_61810)">
<path id="Vector" d="M9.33333 5.25H0V1.75C0 1.28587 0.184374 0.840752 0.512563 0.512563C0.840752 0.184374 1.28587 0 1.75 0L7.58333 0C8.04746 0 8.49258 0.184374 8.82077 0.512563C9.14896 0.840752 9.33333 1.28587 9.33333 1.75V5.25ZM13.6582 2.33333L11.4958 0.170917L10.6709 0.99575L11.6667 1.9915V3.5C11.6667 3.80942 11.7896 4.10617 12.0084 4.32496C12.2272 4.54375 12.5239 4.66667 12.8333 4.66667V10.5C12.8333 10.6547 12.7719 10.8031 12.6625 10.9125C12.5531 11.0219 12.4047 11.0833 12.25 11.0833C12.0953 11.0833 11.9469 11.0219 11.8375 10.9125C11.7281 10.8031 11.6667 10.6547 11.6667 10.5V9.91667C11.6667 9.45254 11.4823 9.00742 11.1541 8.67923C10.8259 8.35104 10.3808 8.16667 9.91667 8.16667H9.33333V6.41667H0V14H9.33333V9.33333H9.91667C10.0714 9.33333 10.2197 9.39479 10.3291 9.50419C10.4385 9.61358 10.5 9.76196 10.5 9.91667V10.5C10.5 10.9641 10.6844 11.4092 11.0126 11.7374C11.3408 12.0656 11.7859 12.25 12.25 12.25C12.7141 12.25 13.1592 12.0656 13.4874 11.7374C13.8156 11.4092 14 10.9641 14 10.5V3.15817C13.9992 2.84891 13.8764 2.55247 13.6582 2.33333Z" fill="var(--fill-0, #FA7960)"/>
</g>
<defs>
<clipPath id="clip0_0_61810">
<rect width="14" height="14" fill="white"/>
</clipPath>
</defs>
</svg>
