<svg width="116" height="39" viewBox="0 0 116 39" fill="none" xmlns="http://www.w3.org/2000/svg">
<path d="M62.6 17.1661C61.1769 17.1661 59.9541 16.9312 58.9316 16.4614C57.9092 15.9778 57.0733 15.3492 56.4239 14.5754C55.7745 13.8017 55.2978 12.9589 54.9938 12.0469C54.6898 11.135 54.5379 10.2438 54.5379 9.37337V8.91742C54.5379 7.97787 54.6968 7.05214 55.0145 6.14022C55.3323 5.21449 55.809 4.37857 56.4446 3.63246C57.094 2.88635 57.9023 2.29222 58.8695 1.85008C59.8366 1.39413 60.9696 1.16615 62.2684 1.16615C63.6639 1.16615 64.8936 1.42176 65.9575 1.93298C67.0352 2.44421 67.8988 3.15578 68.5482 4.06769C69.1976 4.96579 69.5775 6.00896 69.6881 7.19721H65.8332C65.7503 6.74126 65.5499 6.33366 65.2321 5.97442C64.9143 5.60136 64.4998 5.31121 63.9886 5.10396C63.4912 4.88289 62.9178 4.77235 62.2684 4.77235C61.6466 4.77235 61.094 4.88289 60.6104 5.10396C60.1406 5.31121 59.7399 5.61518 59.4083 6.01587C59.0905 6.40274 58.8487 6.86561 58.6829 7.40447C58.5171 7.94333 58.4342 8.53054 58.4342 9.16612C58.4342 9.8017 58.524 10.3958 58.7037 10.9485C58.8833 11.4874 59.1458 11.964 59.4912 12.3785C59.8366 12.7792 60.2719 13.0901 60.7969 13.3112C61.3219 13.5323 61.923 13.6428 62.6 13.6428C63.4567 13.6428 64.1959 13.4632 64.8176 13.1039C65.4394 12.7447 65.8746 12.268 66.1233 11.6739L65.8332 13.9537V10.6583H69.3565V13.7671C68.7209 14.8587 67.8159 15.7015 66.6415 16.2956C65.4808 16.8759 64.1337 17.1661 62.6 17.1661ZM62.1855 11.4045V8.71016H70.6V11.4045H62.1855Z" fill="white"/>
<path d="M71.968 16.7516V5.31121H74.9525V10.2853H74.911C74.911 8.68253 75.2426 7.42519 75.9058 6.51328C76.5829 5.60137 77.55 5.14541 78.8074 5.14541H79.2633V8.37856H78.3929C77.55 8.37856 76.8937 8.60654 76.424 9.06249C75.968 9.51845 75.74 10.1748 75.74 11.0314V16.7516H71.968Z" fill="white"/>
<path d="M85.6649 17.1661C84.6977 17.1661 83.841 17.0003 83.0949 16.6687C82.3488 16.3371 81.7201 15.888 81.2089 15.3215C80.6977 14.755 80.3039 14.1195 80.0276 13.4148C79.765 12.7101 79.6338 11.9848 79.6338 11.2387V10.8241C79.6338 10.0504 79.765 9.3112 80.0276 8.60654C80.3039 7.88806 80.6908 7.25248 81.1882 6.69981C81.6994 6.14713 82.3212 5.7119 83.0535 5.39411C83.7858 5.06251 84.6148 4.8967 85.5405 4.8967C86.7702 4.8967 87.8134 5.17304 88.67 5.72572C89.5267 6.27839 90.183 7.01069 90.6389 7.9226C91.0949 8.8207 91.3229 9.8017 91.3229 10.8656V12.0677H81.2089V10.0366H89.1467L87.841 10.9485C87.841 10.2991 87.7512 9.75334 87.5716 9.3112C87.4058 8.85524 87.1502 8.50982 86.8047 8.27493C86.4731 8.04004 86.0517 7.9226 85.5405 7.9226C85.0431 7.9226 84.6079 8.04004 84.2348 8.27493C83.8756 8.496 83.5992 8.84142 83.4058 9.3112C83.2124 9.76715 83.1156 10.3475 83.1156 11.0521C83.1156 11.6877 83.2055 12.2404 83.3851 12.7101C83.5647 13.1661 83.841 13.5184 84.2141 13.7671C84.5871 14.0158 85.0707 14.1402 85.6649 14.1402C86.1899 14.1402 86.6182 14.0504 86.9498 13.8708C87.2952 13.6911 87.537 13.4494 87.6752 13.1454H91.1156C90.9498 13.9191 90.6182 14.61 90.1208 15.2179C89.6372 15.8259 89.0155 16.3025 88.2555 16.648C87.5094 16.9934 86.6459 17.1661 85.6649 17.1661Z" fill="white"/>
<path d="M99.8188 16.7516V13.3941H99.197V9.8086C99.197 9.28356 99.0727 8.89669 98.824 8.64799C98.5891 8.38547 98.1953 8.25421 97.6426 8.25421C97.3801 8.25421 96.9932 8.26111 96.482 8.27493C95.9708 8.28875 95.4319 8.30947 94.8654 8.33711C94.2989 8.36474 93.7808 8.39238 93.311 8.42001V5.26976C93.6426 5.24213 94.0364 5.21449 94.4924 5.18686C94.9483 5.15923 95.4181 5.1385 95.9017 5.12468C96.3991 5.11087 96.8551 5.10396 97.2696 5.10396C98.444 5.10396 99.4388 5.27667 100.254 5.62209C101.083 5.96751 101.712 6.48565 102.14 7.17649C102.582 7.86733 102.803 8.74471 102.803 9.8086V16.7516H99.8188ZM96.1919 17.0417C95.3905 17.0417 94.6789 16.8967 94.0572 16.6065C93.4354 16.3164 92.9449 15.9018 92.5857 15.363C92.2402 14.8103 92.0675 14.154 92.0675 13.3941C92.0675 12.5374 92.2955 11.8466 92.7515 11.3216C93.2074 10.7827 93.8361 10.3889 94.6375 10.1402C95.4388 9.89151 96.3577 9.76715 97.3939 9.76715H99.6115V11.7153H97.3939C96.8827 11.7153 96.4889 11.8466 96.2126 12.1091C95.9362 12.3578 95.7981 12.6963 95.7981 13.1247C95.7981 13.5392 95.9362 13.8777 96.2126 14.1402C96.4889 14.3889 96.8827 14.5133 97.3939 14.5133C97.7255 14.5133 98.0157 14.458 98.2644 14.3474C98.5269 14.2231 98.7411 14.0158 98.9069 13.7257C99.0727 13.4355 99.1694 13.0348 99.197 12.5236L100.067 13.3526C99.9984 14.1402 99.805 14.8103 99.4872 15.363C99.1832 15.9018 98.7549 16.3164 98.2022 16.6065C97.6634 16.8967 96.9932 17.0417 96.1919 17.0417Z" fill="white"/>
<path d="M110.36 16.9174C109.116 16.9174 108.122 16.7654 107.375 16.4614C106.643 16.1575 106.111 15.6531 105.78 14.9485C105.448 14.2438 105.282 13.2905 105.282 12.0884L105.303 2.32677H108.785L108.764 12.192C108.764 12.7032 108.895 13.097 109.158 13.3734C109.434 13.6359 109.828 13.7671 110.339 13.7671H111.914V16.9174H110.36ZM103.624 8.04695V5.31121H111.914V8.04695H103.624Z" fill="white"/>
<path d="M62.3513 38.1677C60.9834 38.1677 59.809 37.9328 58.828 37.463C57.847 36.9794 57.0387 36.3507 56.4031 35.577C55.7676 34.7894 55.2978 33.9397 54.9938 33.0278C54.6898 32.1159 54.5379 31.2316 54.5379 30.375V29.919C54.5379 28.9656 54.6898 28.033 54.9938 27.1211C55.3116 26.1953 55.7883 25.3594 56.4239 24.6133C57.0733 23.8672 57.8815 23.2731 58.8487 22.8309C59.8159 22.3888 60.9489 22.1677 62.2477 22.1677C63.6294 22.1677 64.8522 22.4302 65.9161 22.9553C66.9938 23.4665 67.8573 24.1919 68.5067 25.1314C69.1561 26.0572 69.5361 27.1349 69.6466 28.3646H65.7917C65.695 27.8396 65.4877 27.3836 65.1699 26.9967C64.8522 26.6099 64.4446 26.3128 63.9472 26.1055C63.4497 25.8845 62.8833 25.7739 62.2477 25.7739C61.6536 25.7739 61.1147 25.8776 60.6311 26.0848C60.1613 26.2921 59.7606 26.5891 59.429 26.976C59.1112 27.3491 58.8625 27.805 58.6829 28.3439C58.5171 28.8827 58.4342 29.4907 58.4342 30.1677C58.4342 30.8447 58.5171 31.4527 58.6829 31.9915C58.8625 32.5304 59.1182 32.9932 59.4498 33.3801C59.7952 33.767 60.2097 34.0641 60.6933 34.2713C61.1769 34.4647 61.7295 34.5615 62.3513 34.5615C63.3185 34.5615 64.1337 34.3266 64.7969 33.8568C65.4739 33.387 65.8815 32.7584 66.0197 31.9708H69.8746C69.7502 33.1038 69.3703 34.1401 68.7347 35.0796C68.0991 36.0191 67.2425 36.7722 66.1648 37.3387C65.087 37.8913 63.8159 38.1677 62.3513 38.1677Z" fill="white"/>
<path d="M78.2426 37.7532V34.3957H77.6208V30.8102C77.6208 30.2851 77.4965 29.8983 77.2478 29.6496C77.0129 29.387 76.6191 29.2558 76.0664 29.2558C75.8039 29.2558 75.417 29.2627 74.9058 29.2765C74.3946 29.2903 73.8557 29.3111 73.2893 29.3387C72.7228 29.3663 72.2046 29.394 71.7349 29.4216V26.2713C72.0665 26.2437 72.4602 26.2161 72.9162 26.1884C73.3722 26.1608 73.8419 26.1401 74.3255 26.1263C74.8229 26.1124 75.2789 26.1055 75.6934 26.1055C76.8678 26.1055 77.8626 26.2782 78.6778 26.6237C79.5068 26.9691 80.1355 27.4872 80.5638 28.1781C81.006 28.8689 81.227 29.7463 81.227 30.8102V37.7532H78.2426ZM74.6157 38.0433C73.8143 38.0433 73.1027 37.8982 72.481 37.6081C71.8592 37.3179 71.3687 36.9034 71.0095 36.3646C70.664 35.8119 70.4913 35.1556 70.4913 34.3957C70.4913 33.539 70.7193 32.8482 71.1753 32.3231C71.6312 31.7843 72.2599 31.3905 73.0613 31.1418C73.8627 30.8931 74.7815 30.7687 75.8177 30.7687H78.0353V32.7169H75.8177C75.3065 32.7169 74.9127 32.8482 74.6364 33.1107C74.3601 33.3594 74.2219 33.6979 74.2219 34.1262C74.2219 34.5407 74.3601 34.8793 74.6364 35.1418C74.9127 35.3905 75.3065 35.5148 75.8177 35.5148C76.1493 35.5148 76.4395 35.4596 76.6882 35.349C76.9507 35.2247 77.1649 35.0174 77.3307 34.7273C77.4965 34.4371 77.5932 34.0364 77.6208 33.5252L78.4913 34.3542C78.4222 35.1418 78.2288 35.8119 77.911 36.3646C77.607 36.9034 77.1787 37.3179 76.626 37.6081C76.0872 37.8982 75.417 38.0433 74.6157 38.0433Z" fill="white"/>
<path d="M83.3329 37.7532V26.3128H86.3174V31.2869H86.2759C86.2759 29.6841 86.6075 28.4268 87.2707 27.5149C87.9478 26.6029 88.915 26.147 90.1723 26.147H90.6282V29.3801H89.7578C88.915 29.3801 88.2587 29.6081 87.7889 30.0641C87.3329 30.52 87.1049 31.1763 87.1049 32.033V37.7532H83.3329Z" fill="white"/>
<path d="M96.3666 38.1262C95.5652 38.1262 94.8329 37.9811 94.1697 37.691C93.5203 37.4008 92.9538 37.0001 92.4702 36.4889C92.0004 35.9639 91.6343 35.349 91.3718 34.6444C91.1231 33.9397 90.9987 33.1729 90.9987 32.3439V31.8464C90.9987 31.0174 91.1162 30.2506 91.351 29.5459C91.5997 28.8275 91.9521 28.2057 92.408 27.6807C92.864 27.1418 93.4167 26.7273 94.0661 26.4371C94.7155 26.1332 95.4408 25.9812 96.2422 25.9812C97.1679 25.9812 97.9555 26.1884 98.6049 26.6029C99.2681 27.0036 99.7724 27.5909 100.118 28.3646C100.477 29.1383 100.671 30.0779 100.698 31.1832L99.8277 30.5408V22.6237H103.6V37.7532H100.615V33.1107H101.03C101.002 34.1331 100.795 35.0243 100.408 35.7843C100.021 36.5304 99.4823 37.1107 98.7914 37.5252C98.1144 37.9259 97.3061 38.1262 96.3666 38.1262ZM97.3821 35.0174C97.8381 35.0174 98.2526 34.9138 98.6256 34.7065C99.0125 34.4993 99.3234 34.1953 99.5583 33.7946C99.7932 33.3939 99.9106 32.9103 99.9106 32.3439V31.6392C99.9106 31.0865 99.7862 30.6237 99.5375 30.2506C99.3026 29.8775 98.9918 29.5943 98.6049 29.4009C98.2319 29.1936 97.8243 29.09 97.3821 29.09C96.8847 29.09 96.4357 29.2212 96.035 29.4838C95.6481 29.7325 95.3372 30.0848 95.1023 30.5408C94.8813 30.9829 94.7707 31.501 94.7707 32.0952C94.7707 32.6893 94.8813 33.2074 95.1023 33.6496C95.3372 34.0779 95.6481 34.4164 96.035 34.6651C96.4357 34.9 96.8847 35.0174 97.3821 35.0174Z" fill="white"/>
<path d="M110.46 38.1262C108.802 38.1262 107.496 37.7877 106.543 37.1107C105.589 36.4198 105.078 35.4527 105.009 34.2091H108.325C108.381 34.5546 108.595 34.8516 108.968 35.1003C109.341 35.349 109.866 35.4734 110.543 35.4734C111.026 35.4734 111.441 35.4043 111.786 35.2661C112.146 35.1141 112.325 34.8723 112.325 34.5407C112.325 34.2506 112.187 34.0157 111.911 33.8361C111.634 33.6426 111.13 33.5114 110.398 33.4423L109.61 33.3594C108.146 33.2074 107.068 32.8067 106.377 32.1573C105.686 31.5079 105.341 30.6927 105.341 29.7117C105.341 28.8689 105.548 28.1781 105.963 27.6392C106.377 27.0865 106.95 26.672 107.683 26.3957C108.415 26.1194 109.251 25.9812 110.191 25.9812C111.724 25.9812 112.961 26.3197 113.9 26.9967C114.84 27.6599 115.337 28.6202 115.393 29.8775H112.077C112.021 29.5321 111.835 29.242 111.517 29.0071C111.199 28.7584 110.743 28.634 110.149 28.634C109.721 28.634 109.368 28.71 109.092 28.862C108.83 29.014 108.698 29.2281 108.698 29.5045C108.698 29.7946 108.823 30.0088 109.071 30.147C109.334 30.2851 109.748 30.3888 110.315 30.4579L111.102 30.5408C112.567 30.6927 113.693 31.1003 114.481 31.7635C115.282 32.4129 115.683 33.2696 115.683 34.3335C115.683 35.121 115.469 35.7981 115.04 36.3646C114.626 36.9311 114.025 37.3663 113.237 37.6703C112.463 37.9742 111.538 38.1262 110.46 38.1262Z" fill="white"/>
<path d="M39.921 0C41.5847 0.000217911 42.9339 1.34909 42.9339 3.01292V8.03381C42.9339 8.21862 42.7837 8.36867 42.5989 8.36879H11.7167C9.86786 8.36881 8.36879 9.86786 8.36879 11.7167V27.2833C8.36896 29.132 9.86797 30.6302 11.7167 30.6302H42.9339V35.9871C42.9338 37.6508 41.5847 38.9998 39.921 39H34.2721V35.0202C34.2719 34.2015 33.3444 33.727 32.6802 34.2057L26.0283 39H6.69484C2.99734 38.9998 0 36.0017 0 32.3042V6.69484C9.73346e-05 2.99737 2.9974 0.000235384 6.69484 0H39.921Z" fill="white"/>
<path d="M34.8169 20.7534C34.8169 20.0601 35.3789 19.498 36.0722 19.498H41.6795C42.3729 19.498 42.9349 20.0601 42.9349 20.7534V23.9337C42.9349 24.627 42.3729 25.189 41.6795 25.189H36.0722C35.3789 25.189 34.8169 24.627 34.8169 23.9337V20.7534Z" fill="white"/>
</svg>
