<svg viewBox="0 0 13.3333 13.3333" fill="none" xmlns="http://www.w3.org/2000/svg">
<path id="Vector" d="M6.66667 13.3333C7.98521 13.3333 9.27414 12.9423 10.3705 12.2098C11.4668 11.4773 12.3213 10.4361 12.8259 9.21789C13.3304 7.99972 13.4625 6.65927 13.2052 5.36607C12.948 4.07286 12.3131 2.88497 11.3807 1.95262C10.4484 1.02027 9.26047 0.385336 7.96727 0.128101C6.67406 -0.129134 5.33362 0.00288856 4.11544 0.507473C2.89727 1.01206 1.85608 1.86654 1.12354 2.96287C0.390993 4.0592 0 5.34813 0 6.66667C0 8.43478 0.702379 10.1305 1.95262 11.3807C2.57168 11.9998 3.30661 12.4908 4.11544 12.8259C4.92428 13.1609 5.79119 13.3333 6.66667 13.3333ZM4.19533 6.19534C4.25721 6.1334 4.33068 6.08427 4.41156 6.05075C4.49243 6.01723 4.57912 5.99998 4.66667 5.99998C4.75421 5.99998 4.8409 6.01723 4.92177 6.05075C5.00265 6.08427 5.07612 6.1334 5.138 6.19534L6 7.05727L8.19533 4.862C8.32107 4.74056 8.48947 4.67337 8.66427 4.67489C8.83906 4.67641 9.00627 4.74652 9.12988 4.87012C9.25348 4.99373 9.3236 5.16094 9.32512 5.33574C9.32663 5.51053 9.25944 5.67894 9.138 5.80467L6.47133 8.47134C6.40945 8.53326 6.33598 8.58238 6.2551 8.6159C6.17423 8.64942 6.08754 8.66667 6 8.66667C5.91246 8.66667 5.82577 8.64942 5.7449 8.6159C5.66402 8.58238 5.59055 8.53326 5.52867 8.47134L4.19533 7.138C4.1334 7.07613 4.08427 7.00265 4.05075 6.92178C4.01723 6.8409 3.99998 6.75422 3.99998 6.66667C3.99998 6.57912 4.01723 6.49244 4.05075 6.41156C4.08427 6.33069 4.1334 6.25721 4.19533 6.19534Z" fill="var(--fill-0, #13A80B)"/>
</svg>
