<svg viewBox="0 0 17.9636 17.9726" fill="none" xmlns="http://www.w3.org/2000/svg">
<path id="Vector" d="M5.2207 0.336914H12.752C14.3203 0.336991 15.5319 0.803355 16.3496 1.62207C17.1671 2.44071 17.6312 3.6518 17.627 5.21973V12.752C17.6269 14.3202 17.1606 15.5317 16.3418 16.3506C15.5228 17.1695 14.3107 17.6357 12.7422 17.6357H5.2207C3.65238 17.6357 2.44093 17.1695 1.62207 16.3496C0.803134 15.5296 0.336914 14.3154 0.336914 12.7422V5.2207C0.336981 3.65238 0.803168 2.44097 1.62207 1.62207C2.44097 0.803168 3.65238 0.336981 5.2207 0.336914ZM13.5205 5.72852C13.1283 5.33631 12.483 5.33631 12.0908 5.72852L7.70996 10.1084L5.88184 8.28027C5.48962 7.88823 4.8443 7.88814 4.45215 8.28027C4.05999 8.67243 4.0601 9.31774 4.45215 9.70996L6.99609 12.2529C7.18429 12.441 7.44004 12.5497 7.70996 12.5498C7.98008 12.5498 8.23652 12.4412 8.4248 12.2529L13.5205 7.1582L13.5244 7.15332C13.9087 6.75541 13.9146 6.1228 13.5205 5.72852Z" fill="var(--fill-0, #0064E0)" stroke="var(--stroke-0, #0064E0)" stroke-width="0.673973"/>
</svg>
