<svg viewBox="0 0 16 16" fill="none" xmlns="http://www.w3.org/2000/svg">
<g id="close-circle">
<path id="Vector" opacity="0.3" d="M8 14.6667C11.6819 14.6667 14.6667 11.6819 14.6667 8C14.6667 4.3181 11.6819 1.33333 8 1.33333C4.3181 1.33333 1.33333 4.3181 1.33333 8C1.33333 11.6819 4.3181 14.6667 8 14.6667Z" fill="var(--fill-0, #FF5876)"/>
<path id="Vector_2" d="M8.70667 8L10.24 6.46667C10.4333 6.27333 10.4333 5.95333 10.24 5.76C10.0467 5.56667 9.72667 5.56667 9.53333 5.76L8 7.29333L6.46667 5.76C6.27333 5.56667 5.95333 5.56667 5.76 5.76C5.56667 5.95333 5.56667 6.27333 5.76 6.46667L7.29333 8L5.76 9.53333C5.56667 9.72667 5.56667 10.0467 5.76 10.24C5.86 10.34 5.98667 10.3867 6.11333 10.3867C6.24 10.3867 6.36667 10.34 6.46667 10.24L8 8.70667L9.53333 10.24C9.63333 10.34 9.76 10.3867 9.88667 10.3867C10.0133 10.3867 10.14 10.34 10.24 10.24C10.4333 10.0467 10.4333 9.72667 10.24 9.53333L8.70667 8Z" fill="var(--fill-0, #FF5876)"/>
<g id="Vector_3" opacity="0">
</g>
</g>
</svg>
