<svg viewBox="0 0 14 14" fill="none" xmlns="http://www.w3.org/2000/svg">
<g id="seat-airline 1" clip-path="url(#clip0_0_61821)">
<path id="Vector" d="M12.25 12.8333H5.25C4.95658 12.8333 4.8055 12.6397 4.75358 12.5568C4.70225 12.4728 4.59667 12.2518 4.72792 11.9887L5.30542 10.8343C5.7225 10.9912 6.16875 11.0828 6.63308 11.0828H11.375C11.8032 11.0828 12.2086 10.8955 12.4863 10.5688C12.7639 10.2422 12.8835 9.80933 12.8141 9.38175C12.7009 8.68875 12.0558 8.16608 11.3132 8.16608H6.64125C6.24808 8.16608 5.90042 7.90125 5.79717 7.52208L5.3375 5.83275H11.0833C11.4053 5.83275 11.6667 5.572 11.6667 5.24942C11.6667 4.92683 11.4053 4.66608 11.0833 4.66608H5.02017L4.06408 1.155C3.86808 0.408916 3.15058 -0.0892502 2.42783 0.0134165C2.01717 0.0740831 1.65083 0.306833 1.42275 0.652166C1.19467 0.9975 1.12408 1.42508 1.22967 1.82758L2.97383 8.28392C3.192 9.08833 3.6645 9.77142 4.2875 10.2632L3.68492 11.4678C3.41192 12.0149 3.4405 12.6508 3.76192 13.1705C4.08333 13.6903 4.63925 14.0006 5.25058 14.0006H12.2506C12.5726 14.0006 12.8339 13.7398 12.8339 13.4173C12.8339 13.0947 12.5726 12.8339 12.2506 12.8339L12.25 12.8333Z" fill="var(--fill-0, #F3B302)"/>
</g>
<defs>
<clipPath id="clip0_0_61821">
<rect width="14" height="14" fill="white"/>
</clipPath>
</defs>
</svg>
