<svg viewBox="0 0 15.0004 16.8749" fill="none" xmlns="http://www.w3.org/2000/svg">
<g id="Vector" filter="url(#filter0_dd_0_61817)">
<path d="M5.36493 3.306C6.31518 1.602 6.78993 0.75 7.50018 0.75C8.21043 0.75 8.68518 1.602 9.63543 3.306L9.88143 3.747C10.1514 4.2315 10.2864 4.47375 10.4964 4.6335C10.7064 4.79325 10.9689 4.8525 11.4939 4.971L11.9709 5.079C13.8159 5.49675 14.7377 5.70525 14.9574 6.411C15.1764 7.116 14.5479 7.85175 13.2902 9.3225L12.9647 9.70275C12.6077 10.1205 12.4284 10.3297 12.3482 10.5877C12.2679 10.8465 12.2949 11.1255 12.3489 11.6827L12.3984 12.1905C12.5882 14.1532 12.6834 15.1343 12.1089 15.57C11.5344 16.0058 10.6704 15.6082 8.94393 14.8132L8.49618 14.6077C8.00568 14.3812 7.76043 14.2687 7.50018 14.2687C7.23993 14.2687 6.99468 14.3812 6.50418 14.6077L6.05718 14.8132C4.32993 15.6082 3.46593 16.0057 2.89218 15.5707C2.31693 15.1342 2.41218 14.1532 2.60193 12.1905L2.65143 11.6835C2.70543 11.1255 2.73243 10.8465 2.65143 10.5885C2.57193 10.3298 2.39268 10.1205 2.03568 9.7035L1.71018 9.3225C0.452426 7.8525 -0.176074 7.11675 0.0429262 6.411C0.261926 5.70525 1.18518 5.496 3.03018 5.079L3.50718 4.971C4.03143 4.8525 4.29318 4.79325 4.50393 4.6335C4.71468 4.47375 4.84893 4.2315 5.11893 3.747L5.36493 3.306Z" fill="url(#paint0_linear_0_61817)"/>
<path d="M7.5 1.125C7.67529 1.125 7.87431 1.21846 8.17969 1.61719C8.48526 2.01619 8.82648 2.62551 9.30762 3.48828L9.55371 3.92969C9.80738 4.38488 9.98246 4.71323 10.2695 4.93164C10.4871 5.09715 10.7437 5.17998 11.0664 5.25781L11.4111 5.33691L11.8877 5.44434C12.823 5.6561 13.4813 5.80688 13.9365 5.98633C14.328 6.14071 14.4964 6.28835 14.5723 6.45117L14.5996 6.52246C14.6601 6.7176 14.6265 6.95697 14.3604 7.37988C14.0915 7.80697 13.6418 8.33436 13.0049 9.0791L12.6797 9.45898C12.3853 9.80344 12.1612 10.057 12.0371 10.3486L11.9902 10.4766C11.8824 10.8242 11.9246 11.1927 11.9756 11.7188L12.0254 12.2266C12.1214 13.22 12.1888 13.9244 12.166 14.4365C12.1432 14.9478 12.0328 15.157 11.8818 15.2715C11.7368 15.3812 11.5256 15.4259 11.0615 15.293C10.7095 15.1921 10.2747 15.0078 9.70996 14.752L9.10059 14.4727L8.65234 14.2666H8.65137C8.19257 14.0547 7.86126 13.8936 7.5 13.8936C7.13853 13.8936 6.80694 14.0545 6.34766 14.2666L5.90039 14.4727C5.02485 14.8756 4.40785 15.1584 3.93848 15.293C3.47392 15.4261 3.26263 15.381 3.11816 15.2715C2.96704 15.1564 2.85782 14.9469 2.83496 14.4365C2.81206 13.9244 2.87954 13.22 2.97559 12.2266L3.02441 11.7197C3.06901 11.2589 3.10735 10.9183 3.04297 10.6074L3.00879 10.4766C2.9008 10.127 2.65609 9.85217 2.32031 9.45996L1.99512 9.0791C1.3583 8.33482 0.908456 7.80788 0.639648 7.38086C0.373484 6.95801 0.340728 6.71813 0.401367 6.52246C0.46073 6.33116 0.615938 6.16213 1.06445 5.98535C1.51994 5.80587 2.17824 5.65567 3.11328 5.44434L3.58984 5.33691C4.08201 5.22567 4.44015 5.15263 4.73047 4.93262C5.01885 4.71402 5.19304 4.38414 5.44629 3.92969L5.69238 3.48828C6.17352 2.62549 6.51474 2.01621 6.82031 1.61719C7.12562 1.21853 7.32474 1.12506 7.5 1.125Z" stroke="url(#paint1_linear_0_61817)" stroke-width="0.75"/>
</g>
<defs>
<filter id="filter0_dd_0_61817" x="0" y="0" width="15.0004" height="16.8749" filterUnits="userSpaceOnUse" color-interpolation-filters="sRGB">
<feFlood flood-opacity="0" result="BackgroundImageFix"/>
<feColorMatrix in="SourceAlpha" type="matrix" values="0 0 0 0 0 0 0 0 0 0 0 0 0 0 0 0 0 0 127 0" result="hardAlpha"/>
<feOffset dy="1.125"/>
<feComposite in2="hardAlpha" operator="out"/>
<feColorMatrix type="matrix" values="0 0 0 0 0.905405 0 0 0 0 0.578672 0 0 0 0 0 0 0 0 1 0"/>
<feBlend mode="normal" in2="BackgroundImageFix" result="effect1_dropShadow_0_61817"/>
<feColorMatrix in="SourceAlpha" type="matrix" values="0 0 0 0 0 0 0 0 0 0 0 0 0 0 0 0 0 0 127 0" result="hardAlpha"/>
<feOffset dy="-0.75"/>
<feComposite in2="hardAlpha" operator="out"/>
<feColorMatrix type="matrix" values="0 0 0 0 1 0 0 0 0 1 0 0 0 0 1 0 0 0 0.73 0"/>
<feBlend mode="normal" in2="effect1_dropShadow_0_61817" result="effect2_dropShadow_0_61817"/>
<feBlend mode="normal" in="SourceGraphic" in2="effect2_dropShadow_0_61817" result="shape"/>
</filter>
<linearGradient id="paint0_linear_0_61817" x1="7.50018" y1="15.7499" x2="7.50018" y2="0.75" gradientUnits="userSpaceOnUse">
<stop stop-color="#DEB34F"/>
<stop offset="0.509615" stop-color="#FFD82C"/>
<stop offset="1" stop-color="#EF8F03"/>
</linearGradient>
<linearGradient id="paint1_linear_0_61817" x1="13.5" y1="15" x2="4.875" y2="0.750001" gradientUnits="userSpaceOnUse">
<stop stop-color="#EF8F03"/>
<stop offset="0.490385" stop-color="#FFD82C"/>
<stop offset="1" stop-color="#FFF492"/>
</linearGradient>
</defs>
</svg>
