<svg viewBox="0 0 14 14" fill="none" xmlns="http://www.w3.org/2000/svg">
<g id="room-service 1" clip-path="url(#clip0_0_61813)">
<path id="Vector" d="M14 12.8333C14 12.988 13.9385 13.1364 13.8291 13.2458C13.7197 13.3552 13.5714 13.4167 13.4167 13.4167H0.583333C0.428623 13.4167 0.28025 13.3552 0.170854 13.2458C0.061458 13.1364 -2.08616e-07 12.988 -2.08616e-07 12.8333C-2.08616e-07 12.6786 0.061458 12.5303 0.170854 12.4209C0.28025 12.3115 0.428623 12.25 0.583333 12.25H13.4167C13.5714 12.25 13.7197 12.3115 13.8291 12.4209C13.9385 12.5303 14 12.6786 14 12.8333ZM1.16667 11.0833H12.8333C12.988 11.0833 13.1364 11.0219 13.2458 10.9125C13.3552 10.8031 13.4167 10.6547 13.4167 10.5V9.91667C13.4145 8.31678 12.8154 6.77528 11.7364 5.59395C10.6575 4.41261 9.17648 3.67651 7.58333 3.52975V2.75508C7.80575 2.62667 7.97958 2.42846 8.07786 2.19118C8.17614 1.95391 8.19338 1.69084 8.12691 1.44276C8.06044 1.19469 7.91397 0.975485 7.71022 0.819141C7.50647 0.662797 7.25682 0.578054 7 0.578054C6.74318 0.578054 6.49353 0.662797 6.28978 0.819141C6.08603 0.975485 5.93956 1.19469 5.87309 1.44276C5.80662 1.69084 5.82386 1.95391 5.92214 2.19118C6.02042 2.42846 6.19425 2.62667 6.41667 2.75508V3.52975C4.82352 3.67651 3.34251 4.41261 2.26357 5.59395C1.18463 6.77528 0.585451 8.31678 0.583333 9.91667V10.5C0.583333 10.6547 0.644791 10.8031 0.754187 10.9125C0.863584 11.0219 1.01196 11.0833 1.16667 11.0833Z" fill="var(--fill-0, #5965ED)"/>
</g>
<defs>
<clipPath id="clip0_0_61813">
<rect width="14" height="14" fill="white"/>
</clipPath>
</defs>
</svg>
