<svg viewBox="0 0 14.8966 14.8966" fill="none" xmlns="http://www.w3.org/2000/svg">
<g id="hand-wave 1" clip-path="url(#clip0_0_61823)">
<path id="Vector" d="M2.79293 14.276C1.74582 14.1419 0.963133 13.3772 0.659616 12.3723C0.511271 11.8801 0.78934 11.3606 1.28155 11.2116C1.77313 11.0627 2.29265 11.3414 2.44224 11.8336C2.54527 12.1749 2.72279 12.3537 3.05362 12.4505C3.54706 12.5951 3.8301 13.1122 3.68548 13.6056C3.56693 14.0116 3.19513 14.2754 2.79231 14.2754L2.79293 14.276ZM11.7613 2.55301C11.5161 1.63501 10.834 0.946047 9.88927 0.660529C9.39768 0.512805 8.87693 0.790254 8.7292 1.28246C8.58024 1.77467 8.85893 2.29418 9.35113 2.44315C9.7583 2.56605 9.90789 2.8317 9.96189 3.03343C10.0736 3.44991 10.4491 3.72425 10.8606 3.72425C11.4615 3.7317 11.9251 3.13274 11.7606 2.55239L11.7613 2.55301ZM12.8791 4.74281C12.66 4.42005 12.2473 4.26363 11.8562 4.38715C11.4782 4.5057 11.2138 4.83156 11.1846 5.23749C11.1846 5.23749 11.166 5.76198 11.1747 6.46956L11.1722 6.46646V7.29384C11.1722 7.55081 10.9637 7.75936 10.7067 7.75936C10.4498 7.75936 10.2412 7.55081 10.2412 7.29384V5.43177C9.94203 5.13446 9.69624 4.86074 9.24375 4.40887C8.04582 3.21094 7.38789 2.18556 7.3792 2.17501C7.09679 1.82929 6.5872 1.77591 6.24086 2.0577C5.89265 2.34012 5.83989 2.8466 6.12044 3.19418C6.07575 3.23577 7.43693 4.97681 8.57651 6.03198C8.73417 6.18963 8.73417 6.44536 8.57651 6.60301L8.57527 6.60425C8.41762 6.76191 8.16189 6.76191 8.00424 6.60425C7.07134 5.88798 4.77975 2.91549 4.89582 2.83915C4.64506 2.46984 4.14231 2.37177 3.77237 2.62129C3.40058 2.87143 3.30251 3.3717 3.55141 3.74287C3.37699 3.74846 5.8101 6.93881 6.85906 7.75005C7.01672 7.9077 7.01672 8.16343 6.85906 8.32108L6.85782 8.32232C6.70017 8.47998 6.44444 8.47998 6.28679 8.32232C5.37562 7.51605 3.28389 5.02956 3.38817 5.08356C3.17713 4.69005 2.68741 4.54046 2.29327 4.75025C1.89789 4.96067 1.74831 5.44791 1.95686 5.84267C1.82589 5.77625 4.04299 8.49984 5.14099 9.46749C5.29865 9.62515 5.29865 9.88087 5.14099 10.0385C4.98334 10.1962 4.72762 10.1962 4.56996 10.0385C3.84872 9.34149 2.56017 7.97101 2.68555 8.06349C2.40686 7.71405 1.89727 7.65632 1.54782 7.93439C1.19837 8.2137 1.14003 8.72205 1.4181 9.07149C1.27658 8.94922 2.56017 10.352 3.3292 11.0881C4.88465 12.615 6.82865 14.276 9.00106 14.276C10.5528 14.276 13.6562 13.3449 13.6562 9.6208C13.6562 5.89667 12.881 4.74281 12.881 4.74281H12.8791Z" fill="var(--fill-0, #11B111)"/>
</g>
<defs>
<clipPath id="clip0_0_61823">
<rect width="14.8966" height="14.8966" fill="white"/>
</clipPath>
</defs>
</svg>
