<svg viewBox="0 0 14 14" fill="none" xmlns="http://www.w3.org/2000/svg">
<g id="shield-check 1" clip-path="url(#clip0_0_61806)">
<path id="Vector" d="M11.634 1.54117L7 0.00525045L2.366 1.54117C2.01686 1.65691 1.71307 1.87972 1.49777 2.17795C1.28247 2.47619 1.16662 2.83468 1.16667 3.2025V7C1.16667 11.389 6.53334 13.8127 6.76317 13.9137L6.96967 14.0052L7.18434 13.9341C7.41534 13.8571 12.8333 12.0032 12.8333 7V3.2025C12.8334 2.83468 12.7175 2.47619 12.5022 2.17795C12.2869 1.87972 11.9831 1.65691 11.634 1.54117ZM7.259 8.16025C7.15703 8.26291 7.03567 8.34429 6.90199 8.39967C6.7683 8.45504 6.62495 8.48331 6.48025 8.48283H6.461C6.31336 8.48057 6.1677 8.44839 6.03285 8.38823C5.89799 8.32807 5.77674 8.24119 5.67642 8.13283L4.33125 6.73283L5.173 5.92667L6.482 7.29167L9.50425 4.26942L10.3291 5.09425L7.259 8.16025Z" fill="var(--fill-0, #1A8E5A)"/>
</g>
<defs>
<clipPath id="clip0_0_61806">
<rect width="14" height="14" fill="white"/>
</clipPath>
</defs>
</svg>
